<svg width="242" height="341" viewBox="0 0 242 341" fill="none" xmlns="http://www.w3.org/2000/svg">
<path d="M154.431 23.9995H106.705V50.9147H154.431V23.9995Z" fill="#2F2E41"/>
<path d="M59.4225 28.3394H34.8158V20.1668C34.8158 17.0589 36.112 14.0783 38.4193 11.8807C40.7267 9.68309 43.8561 8.44849 47.1191 8.44849C50.3822 8.44849 53.5116 9.68309 55.8189 11.8807C58.1263 14.0783 59.4225 17.0589 59.4225 20.1668V28.3394ZM35.3606 27.8205H58.8777V20.1668C58.8777 17.1965 57.6389 14.3479 55.4337 12.2476C53.2285 10.1473 50.2377 8.96737 47.1191 8.96737C44.0006 8.96737 41.0097 10.1473 38.8046 12.2476C36.5994 14.3479 35.3606 17.1965 35.3606 20.1668V27.8205Z" fill="#3F3D56"/>
<path d="M71.5898 27.2154V24.0215L9.01202 25.6185L7.03137 106.519L16.2928 117.416L71.5898 27.2154Z" fill="#3F3D56"/>
<path d="M82.6672 26.0909L14.8402 27.5611L16.2927 117.416L81.7491 110.696L82.6672 26.0909Z" fill="#0DA54B"/>
<path d="M140.334 317.213H132.635L128.973 288.929H140.335L140.334 317.213Z" fill="#FFB6B6"/>
<path d="M142.298 324.321L117.473 324.32V324.021C117.473 321.58 118.491 319.24 120.303 317.514C122.115 315.788 124.573 314.818 127.135 314.818H127.136L142.298 314.819L142.298 324.321Z" fill="#2F2E41"/>
<path d="M112.075 317.213H104.376L100.714 288.929H112.077L112.075 317.213Z" fill="#FFB6B6"/>
<path d="M114.038 324.321L89.2141 324.32V324.021C89.2143 321.58 90.2323 319.24 92.0443 317.514C93.8563 315.788 96.3139 314.818 98.8764 314.818H98.8771L114.039 314.819L114.038 324.321Z" fill="#2F2E41"/>
<path d="M89.4651 140.114C89.4651 140.114 78.2165 163.186 88.3787 209.627C98.5409 256.068 98.6249 307.053 98.6249 307.053L114.163 307.294L122.892 197.528L127.462 305.744H142.771L156.263 199.239C156.263 199.239 165.141 151.68 145.342 143.166L89.4651 140.114Z" fill="#2F2E41"/>
<path d="M143.308 58.6901L109.286 55.7031C98.6168 63.1098 92.6287 76.4128 93.8579 90.1386C95.5246 108.749 94.9608 134.36 81.5859 145.486C81.5859 145.486 118.04 172.889 150.422 146.891C150.422 146.891 139.349 118.638 146.951 107.355C154.553 96.0722 157.296 64.3722 143.308 58.6901Z" fill="#E4E4E4"/>
<path d="M42.0747 12.7051C41.9704 13.6391 42.0824 14.5836 42.4027 15.472C42.7231 16.3604 43.2441 17.1711 43.9291 17.847C44.614 18.5229 45.4461 19.0475 46.3669 19.3839C47.2878 19.7203 48.2749 19.8604 49.2586 19.7941L94.1798 59.7229L102.231 48.0418L55.5433 12.4662C55.3169 10.8995 54.495 9.46627 53.2333 8.43813C51.9716 7.40999 50.3578 6.85837 48.6976 6.88781C47.0374 6.91725 45.4463 7.52569 44.2256 8.59785C43.005 9.67001 42.2397 11.1314 42.0747 12.7051V12.7051Z" fill="#FFB6B6"/>
<path d="M85.7915 53.5546L96.4481 43.1284C96.7514 42.8317 97.1181 42.6008 97.5235 42.4513C97.9289 42.3019 98.3633 42.2374 98.7972 42.2622C99.2311 42.2871 99.6543 42.4007 100.038 42.5954C100.422 42.7901 100.757 43.0612 101.02 43.3903L110.259 54.9235C111.844 56.4097 112.745 58.4337 112.765 60.5518C112.785 62.6698 111.923 64.7091 110.367 66.2224C108.811 67.7358 106.688 68.5998 104.465 68.6251C102.241 68.6503 100.097 67.8347 98.5041 66.357L86.1892 57.9007C85.8367 57.6584 85.5431 57.3467 85.3285 56.9867C85.1139 56.6266 84.9832 56.2268 84.9455 55.8144C84.9078 55.4019 84.9638 54.9866 85.1098 54.5966C85.2558 54.2066 85.4883 53.8512 85.7915 53.5546V53.5546Z" fill="#E4E4E4"/>
<path d="M208.964 109.94C209.014 109.002 208.847 108.065 208.475 107.195C208.103 106.325 207.536 105.543 206.813 104.905C206.089 104.266 205.228 103.786 204.289 103.499C203.35 103.212 202.356 103.124 201.378 103.243L154.197 65.7525L146.839 77.8415L195.53 110.892C195.847 112.444 196.752 113.832 198.071 114.791C199.391 115.751 201.035 116.216 202.691 116.099C204.346 115.982 205.9 115.29 207.056 114.155C208.212 113.02 208.891 111.52 208.964 109.94V109.94Z" fill="#FFB6B6"/>
<path d="M162.932 71.4674L152.9 82.4413C152.615 82.7536 152.262 83.0036 151.866 83.1743C151.47 83.3449 151.04 83.4323 150.605 83.4305C150.171 83.4286 149.742 83.3375 149.347 83.1635C148.953 82.9894 148.602 82.7364 148.32 82.4217L138.423 71.3952C136.754 69.9952 135.736 68.022 135.592 65.9081C135.448 63.7943 136.19 61.7124 137.655 60.1189C139.121 58.5254 141.19 57.5504 143.409 57.4076C145.628 57.2649 147.815 57.966 149.492 59.3574L162.282 67.149C162.648 67.3722 162.959 67.6679 163.194 68.016C163.43 68.3641 163.583 68.7565 163.645 69.1663C163.707 69.5761 163.675 69.9938 163.552 70.3909C163.429 70.7879 163.218 71.1551 162.932 71.4674V71.4674Z" fill="#E4E4E4"/>
<path d="M213.758 125.793H195.119V119.602C195.119 117.248 196.101 114.99 197.848 113.326C199.596 111.661 201.967 110.726 204.438 110.726C206.91 110.726 209.28 111.661 211.028 113.326C212.776 114.99 213.758 117.248 213.758 119.602L213.758 125.793ZM195.531 125.4H213.345V119.602C213.345 117.352 212.407 115.195 210.736 113.604C209.066 112.013 206.8 111.119 204.438 111.119C202.076 111.119 199.81 112.013 198.14 113.604C196.47 115.195 195.531 117.352 195.531 119.602V125.4Z" fill="#3F3D56"/>
<path d="M222.974 124.941V122.522L175.573 123.732L174.073 185.012L181.088 193.266L222.974 124.941Z" fill="#3F3D56"/>
<path d="M231.365 124.09L179.988 125.203L181.088 193.266L230.67 188.176L231.365 124.09Z" fill="#0DA54B"/>
<path d="M128.684 50.3165C139.782 50.3165 148.779 41.7474 148.779 31.1769C148.779 20.6063 139.782 12.0372 128.684 12.0372C117.586 12.0372 108.589 20.6063 108.589 31.1769C108.589 41.7474 117.586 50.3165 128.684 50.3165Z" fill="#FFB6B6"/>
<path d="M119.432 22.6467C126.383 29.1352 138.481 29.7571 146.125 24.0189C148.247 30.9888 148.479 38.3573 146.801 45.4359C145.122 52.5146 141.586 59.0724 136.525 64.4968C140.777 65.9603 145.673 64.9975 149.474 62.665C153.274 60.3324 156.089 56.771 158.214 52.9693C163.472 43.5582 164.789 32.0669 161.068 22.0121C157.348 11.9574 148.436 3.6199 137.607 0.920165C126.779 -1.77957 114.364 1.55527 107.129 9.69008C99.5646 18.1966 98.3389 30.6607 101.654 41.3521C104.969 52.0435 112.24 61.2249 120.229 69.3723C116.392 59.9744 113.847 50.1432 112.659 40.1235C112.252 36.6919 112.015 33.1547 113.032 29.8402C114.05 26.5258 116.555 23.4386 120.047 22.5073" fill="#2F2E41"/>
<path d="M240.812 325.449H1.55351C1.38696 325.449 1.22724 325.386 1.10948 325.274C0.991708 325.162 0.925537 325.01 0.925537 324.851C0.925537 324.692 0.991708 324.54 1.10948 324.428C1.22724 324.316 1.38696 324.253 1.55351 324.253H240.812C240.979 324.253 241.139 324.316 241.256 324.428C241.374 324.54 241.44 324.692 241.44 324.851C241.44 325.01 241.374 325.162 241.256 325.274C241.139 325.386 240.979 325.449 240.812 325.449Z" fill="#CACACA"/>
<path d="M203.71 273.527H185.071V267.337C185.071 264.982 186.053 262.725 187.801 261.06C189.549 259.395 191.919 258.46 194.391 258.46C196.862 258.46 199.233 259.395 200.98 261.06C202.728 262.725 203.71 264.982 203.71 267.337L203.71 273.527ZM185.484 273.134H203.297V267.337C203.297 265.087 202.359 262.929 200.689 261.338C199.018 259.747 196.753 258.853 194.391 258.853C192.028 258.853 189.763 259.747 188.093 261.338C186.422 262.929 185.484 265.087 185.484 267.337V273.134Z" fill="#CACACA"/>
<path d="M212.926 272.675V270.256L165.525 271.466L164.025 332.746L171.04 341L212.926 272.675Z" fill="#CACACA"/>
<path d="M221.317 271.824L169.94 272.937L171.04 341L220.622 335.91L221.317 271.824Z" fill="#E4E4E4"/>
</svg>
